<mxfile host="app.diagrams.net" modified="2020-12-12T09:24:41.558Z" agent="5.0 (Windows NT 10.0; Win64; x64) AppleWebKit/537.36 (KHTML, like Gecko) Chrome/87.0.4280.88 Safari/537.36" etag="wjmH2K1NG0p4y4XNzlO8" version="14.0.1" type="github">
  <diagram id="Oj4wW5O--RkEwdlGAukV" name="Page-1">
    <mxGraphModel dx="868" dy="482" grid="1" gridSize="10" guides="1" tooltips="1" connect="1" arrows="1" fold="1" page="1" pageScale="1" pageWidth="827" pageHeight="1169" math="0" shadow="1">
      <root>
        <mxCell id="0" />
        <mxCell id="1" parent="0" />
        <mxCell id="qmLOsi5TX3G-PDCiECq7-1" value="" style="rounded=1;whiteSpace=wrap;html=1;" vertex="1" parent="1">
          <mxGeometry x="360" y="120" width="120" height="200" as="geometry" />
        </mxCell>
        <mxCell id="qmLOsi5TX3G-PDCiECq7-12" style="edgeStyle=orthogonalEdgeStyle;rounded=0;orthogonalLoop=1;jettySize=auto;html=1;entryX=0.008;entryY=0.1;entryDx=0;entryDy=0;entryPerimeter=0;" edge="1" parent="1" source="qmLOsi5TX3G-PDCiECq7-2" target="qmLOsi5TX3G-PDCiECq7-1">
          <mxGeometry relative="1" as="geometry" />
        </mxCell>
        <mxCell id="qmLOsi5TX3G-PDCiECq7-2" value="" style="rounded=1;whiteSpace=wrap;html=1;" vertex="1" parent="1">
          <mxGeometry x="160" y="120" width="120" height="40" as="geometry" />
        </mxCell>
        <mxCell id="qmLOsi5TX3G-PDCiECq7-13" value="" style="edgeStyle=orthogonalEdgeStyle;rounded=0;orthogonalLoop=1;jettySize=auto;html=1;" edge="1" parent="1" source="qmLOsi5TX3G-PDCiECq7-3" target="qmLOsi5TX3G-PDCiECq7-1">
          <mxGeometry relative="1" as="geometry" />
        </mxCell>
        <mxCell id="qmLOsi5TX3G-PDCiECq7-3" value="" style="rounded=1;whiteSpace=wrap;html=1;" vertex="1" parent="1">
          <mxGeometry x="160" y="200" width="120" height="40" as="geometry" />
        </mxCell>
        <mxCell id="qmLOsi5TX3G-PDCiECq7-17" style="edgeStyle=orthogonalEdgeStyle;rounded=0;orthogonalLoop=1;jettySize=auto;html=1;entryX=0.008;entryY=0.9;entryDx=0;entryDy=0;entryPerimeter=0;" edge="1" parent="1" source="qmLOsi5TX3G-PDCiECq7-4" target="qmLOsi5TX3G-PDCiECq7-1">
          <mxGeometry relative="1" as="geometry" />
        </mxCell>
        <mxCell id="qmLOsi5TX3G-PDCiECq7-4" value="" style="rounded=1;whiteSpace=wrap;html=1;" vertex="1" parent="1">
          <mxGeometry x="160" y="280" width="120" height="40" as="geometry" />
        </mxCell>
        <mxCell id="qmLOsi5TX3G-PDCiECq7-6" value="" style="rounded=1;whiteSpace=wrap;html=1;" vertex="1" parent="1">
          <mxGeometry x="560" y="120" width="120" height="40" as="geometry" />
        </mxCell>
        <mxCell id="qmLOsi5TX3G-PDCiECq7-7" value="" style="rounded=1;whiteSpace=wrap;html=1;" vertex="1" parent="1">
          <mxGeometry x="560" y="200" width="120" height="40" as="geometry" />
        </mxCell>
        <mxCell id="qmLOsi5TX3G-PDCiECq7-8" value="" style="rounded=1;whiteSpace=wrap;html=1;" vertex="1" parent="1">
          <mxGeometry x="560" y="280" width="120" height="40" as="geometry" />
        </mxCell>
        <mxCell id="qmLOsi5TX3G-PDCiECq7-18" value="Client" style="text;html=1;strokeColor=none;fillColor=none;align=center;verticalAlign=middle;whiteSpace=wrap;rounded=0;" vertex="1" parent="1">
          <mxGeometry x="200" y="130" width="40" height="20" as="geometry" />
        </mxCell>
        <mxCell id="qmLOsi5TX3G-PDCiECq7-19" value="Server" style="text;html=1;strokeColor=none;fillColor=none;align=center;verticalAlign=middle;whiteSpace=wrap;rounded=0;" vertex="1" parent="1">
          <mxGeometry x="200" y="210" width="40" height="20" as="geometry" />
        </mxCell>
        <mxCell id="qmLOsi5TX3G-PDCiECq7-20" value="Client" style="text;html=1;strokeColor=none;fillColor=none;align=center;verticalAlign=middle;whiteSpace=wrap;rounded=0;" vertex="1" parent="1">
          <mxGeometry x="200" y="290" width="40" height="20" as="geometry" />
        </mxCell>
        <mxCell id="qmLOsi5TX3G-PDCiECq7-21" value="Server" style="text;html=1;strokeColor=none;fillColor=none;align=center;verticalAlign=middle;whiteSpace=wrap;rounded=0;" vertex="1" parent="1">
          <mxGeometry x="600" y="130" width="40" height="20" as="geometry" />
        </mxCell>
        <mxCell id="qmLOsi5TX3G-PDCiECq7-22" value="Client" style="text;html=1;strokeColor=none;fillColor=none;align=center;verticalAlign=middle;whiteSpace=wrap;rounded=0;" vertex="1" parent="1">
          <mxGeometry x="600" y="210" width="40" height="20" as="geometry" />
        </mxCell>
        <mxCell id="qmLOsi5TX3G-PDCiECq7-23" value="Server" style="text;html=1;strokeColor=none;fillColor=none;align=center;verticalAlign=middle;whiteSpace=wrap;rounded=0;" vertex="1" parent="1">
          <mxGeometry x="600" y="290" width="40" height="20" as="geometry" />
        </mxCell>
        <mxCell id="qmLOsi5TX3G-PDCiECq7-24" style="edgeStyle=orthogonalEdgeStyle;rounded=0;orthogonalLoop=1;jettySize=auto;html=1;entryX=0.008;entryY=0.1;entryDx=0;entryDy=0;entryPerimeter=0;" edge="1" parent="1">
          <mxGeometry relative="1" as="geometry">
            <mxPoint x="480" y="139.5" as="sourcePoint" />
            <mxPoint x="560.96" y="139.5" as="targetPoint" />
          </mxGeometry>
        </mxCell>
        <mxCell id="qmLOsi5TX3G-PDCiECq7-25" style="edgeStyle=orthogonalEdgeStyle;rounded=0;orthogonalLoop=1;jettySize=auto;html=1;entryX=0.008;entryY=0.1;entryDx=0;entryDy=0;entryPerimeter=0;" edge="1" parent="1">
          <mxGeometry relative="1" as="geometry">
            <mxPoint x="479.03999999999996" y="219.5" as="sourcePoint" />
            <mxPoint x="560" y="219.5" as="targetPoint" />
          </mxGeometry>
        </mxCell>
        <mxCell id="qmLOsi5TX3G-PDCiECq7-26" style="edgeStyle=orthogonalEdgeStyle;rounded=0;orthogonalLoop=1;jettySize=auto;html=1;entryX=0.008;entryY=0.1;entryDx=0;entryDy=0;entryPerimeter=0;" edge="1" parent="1">
          <mxGeometry relative="1" as="geometry">
            <mxPoint x="479.99999999999994" y="299.5" as="sourcePoint" />
            <mxPoint x="560.96" y="299.5" as="targetPoint" />
          </mxGeometry>
        </mxCell>
        <mxCell id="qmLOsi5TX3G-PDCiECq7-27" value="Bus &amp;amp; Converter" style="text;html=1;strokeColor=none;fillColor=none;align=center;verticalAlign=middle;whiteSpace=wrap;rounded=0;" vertex="1" parent="1">
          <mxGeometry x="400" y="210" width="40" height="20" as="geometry" />
        </mxCell>
        <mxCell id="qmLOsi5TX3G-PDCiECq7-32" value="2020-12-12" style="text;html=1;strokeColor=none;fillColor=none;align=center;verticalAlign=middle;whiteSpace=wrap;rounded=0;" vertex="1" parent="1">
          <mxGeometry x="40" y="20" width="70" height="20" as="geometry" />
        </mxCell>
        <mxCell id="qmLOsi5TX3G-PDCiECq7-33" value="Restfull Service &amp;amp; Soap Server-Client" style="text;html=1;strokeColor=none;fillColor=none;align=center;verticalAlign=middle;whiteSpace=wrap;rounded=0;" vertex="1" parent="1">
          <mxGeometry x="344" y="360" width="140" height="50" as="geometry" />
        </mxCell>
        <mxCell id="qmLOsi5TX3G-PDCiECq7-34" value="Restfull Service or Soap Server-Client" style="text;html=1;strokeColor=none;fillColor=none;align=center;verticalAlign=middle;whiteSpace=wrap;rounded=0;" vertex="1" parent="1">
          <mxGeometry x="150" y="360" width="140" height="50" as="geometry" />
        </mxCell>
        <mxCell id="qmLOsi5TX3G-PDCiECq7-35" value="Restfull Service or Soap Server-Client" style="text;html=1;strokeColor=none;fillColor=none;align=center;verticalAlign=middle;whiteSpace=wrap;rounded=0;" vertex="1" parent="1">
          <mxGeometry x="560" y="360" width="140" height="50" as="geometry" />
        </mxCell>
      </root>
    </mxGraphModel>
  </diagram>
</mxfile>
